<svg id="レイヤー_1" data-name="レイヤー 1" xmlns="http://www.w3.org/2000/svg" viewBox="0 0 163.23 92.29"><defs><style>.cls-1{fill:#222;}</style></defs><title>logo</title><polygon class="cls-1" points="13.06 18.14 13.06 11.59 0 11.59 0 79.7 13.06 79.7 13.06 73.14 6.91 73.14 6.91 18.14 13.06 18.14"/><polygon class="cls-1" points="24.93 23.18 24.93 74.14 32.47 74.14 32.47 15.03 24.93 23.18"/><path class="cls-1" d="M72.55,32.86a29.31,29.31,0,0,0-3.26-9A13.09,13.09,0,0,0,64.42,19a12.45,12.45,0,0,0-11.68,0,13.09,13.09,0,0,0-4.87,4.91,29.31,29.31,0,0,0-3.26,9,67.63,67.63,0,0,0-1.19,13.8,67.63,67.63,0,0,0,1.19,13.8,29.21,29.21,0,0,0,3.26,9,13.09,13.09,0,0,0,4.87,4.91,12.41,12.41,0,0,0,11.68,0,13.09,13.09,0,0,0,4.87-4.91,29.21,29.21,0,0,0,3.26-9,67.63,67.63,0,0,0,1.19-13.8A67.63,67.63,0,0,0,72.55,32.86ZM61.18,67.8a4.41,4.41,0,0,1-5.22,0,7.36,7.36,0,0,1-2.35-3.24,26.93,26.93,0,0,1-1.74-6.74,76.91,76.91,0,0,1-.66-11.16,76.91,76.91,0,0,1,.66-11.16,26.93,26.93,0,0,1,1.74-6.74A7.26,7.26,0,0,1,56,25.53a4.37,4.37,0,0,1,5.22,0,7.51,7.51,0,0,1,2.34,3.24,27.69,27.69,0,0,1,1.76,6.75A74.89,74.89,0,0,1,66,46.66a75.13,75.13,0,0,1-.68,11.16,27.72,27.72,0,0,1-1.76,6.74A7.51,7.51,0,0,1,61.18,67.8Z" transform="translate(0 -1)"/><path class="cls-1" d="M89.69,68,98,50.81q1.65-3.44,2.88-6.08c.83-1.76,1.52-3.4,2.06-4.88a30.86,30.86,0,0,0,1.22-4.16,20.24,20.24,0,0,0,.39-4,17.15,17.15,0,0,0-.92-5.69,13.18,13.18,0,0,0-2.71-4.55,12.37,12.37,0,0,0-4.36-3,17.67,17.67,0,0,0-11.66-.13,14.74,14.74,0,0,0-5.4,3.07l-.32.28,3.64,6,.44-.33a13,13,0,0,1,3.91-2.14c2.62-.84,4.69-.77,6.18,0a5.67,5.67,0,0,1,1.91,1.53,7.17,7.17,0,0,1,1.13,2.18,8.45,8.45,0,0,1,.38,2.49c0,3-1.51,7.65-4.49,13.88h0L78,75.11h27.2V68Z" transform="translate(0 -1)"/><path class="cls-1" d="M140.9,32.86a29.57,29.57,0,0,0-3.26-9A13.09,13.09,0,0,0,132.77,19a12.47,12.47,0,0,0-11.69,0,13.07,13.07,0,0,0-4.86,4.91,29.31,29.31,0,0,0-3.26,9,67.63,67.63,0,0,0-1.19,13.8A67.63,67.63,0,0,0,113,60.46a29.21,29.21,0,0,0,3.26,9,13.07,13.07,0,0,0,4.86,4.91,12.43,12.43,0,0,0,11.69,0,13.09,13.09,0,0,0,4.87-4.91,29.21,29.21,0,0,0,3.26-9,67.63,67.63,0,0,0,1.19-13.8A67.63,67.63,0,0,0,140.9,32.86ZM129.53,67.8a4.43,4.43,0,0,1-5.23,0A7.52,7.52,0,0,1,122,64.56a27.83,27.83,0,0,1-1.74-6.74,76.91,76.91,0,0,1-.66-11.16,76.91,76.91,0,0,1,.66-11.16A27.83,27.83,0,0,1,122,28.76a7.42,7.42,0,0,1,2.35-3.23,4.71,4.71,0,0,1,2.63-.87,4.66,4.66,0,0,1,2.6.86,7.59,7.59,0,0,1,2.34,3.24,28.21,28.21,0,0,1,1.75,6.75,74.89,74.89,0,0,1,.68,11.15,75.13,75.13,0,0,1-.68,11.16,28.24,28.24,0,0,1-1.75,6.74A7.59,7.59,0,0,1,129.53,67.8Z" transform="translate(0 -1)"/><polygon class="cls-1" points="150.17 11.59 150.17 18.14 156.32 18.14 156.32 73.14 150.17 73.14 150.17 79.7 163.23 79.7 163.23 11.59 150.17 11.59"/><polygon class="cls-1" points="58.58 73.86 47.94 92.29 69.22 92.29 58.58 73.86"/><circle class="cls-1" cx="126.93" cy="8.5" r="8.5"/></svg>